<mxfile host="app.diagrams.net" agent="Mozilla/5.0 (Windows NT 10.0; Win64; x64) AppleWebKit/537.36 (KHTML, like Gecko) Chrome/131.0.0.0 Safari/537.36" version="26.0.2" pages="5">
  <diagram name="Billing" id="0Eard7tVT6lXsIAxhUMO">
    <mxGraphModel dx="2100" dy="857" grid="1" gridSize="10" guides="1" tooltips="1" connect="1" arrows="1" fold="1" page="1" pageScale="1" pageWidth="850" pageHeight="1100" math="0" shadow="0">
      <root>
        <mxCell id="0" />
        <mxCell id="1" parent="0" />
        <mxCell id="7WkuZBkf-DycrFU24cev-24" style="edgeStyle=orthogonalEdgeStyle;rounded=1;orthogonalLoop=1;jettySize=auto;html=1;entryX=0;entryY=0.5;entryDx=0;entryDy=0;curved=0;strokeColor=light-dark(#000000,#CC6600);" edge="1" parent="1" source="7WkuZBkf-DycrFU24cev-1" target="7WkuZBkf-DycrFU24cev-3">
          <mxGeometry relative="1" as="geometry" />
        </mxCell>
        <mxCell id="7WkuZBkf-DycrFU24cev-1" value="manual activation" style="rounded=1;whiteSpace=wrap;html=1;" vertex="1" parent="1">
          <mxGeometry x="40" y="300" width="170" height="30" as="geometry" />
        </mxCell>
        <mxCell id="7WkuZBkf-DycrFU24cev-46" style="edgeStyle=orthogonalEdgeStyle;shape=connector;curved=0;rounded=1;orthogonalLoop=1;jettySize=auto;html=1;strokeColor=light-dark(#000000,#CC6600);align=center;verticalAlign=middle;fontFamily=Helvetica;fontSize=11;fontColor=default;labelBackgroundColor=default;endArrow=classic;" edge="1" parent="1" source="7WkuZBkf-DycrFU24cev-2" target="7WkuZBkf-DycrFU24cev-4">
          <mxGeometry relative="1" as="geometry" />
        </mxCell>
        <mxCell id="7WkuZBkf-DycrFU24cev-47" style="edgeStyle=orthogonalEdgeStyle;shape=connector;curved=0;rounded=1;orthogonalLoop=1;jettySize=auto;html=1;entryX=0;entryY=0.75;entryDx=0;entryDy=0;strokeColor=light-dark(#000000,#CC6600);align=center;verticalAlign=middle;fontFamily=Helvetica;fontSize=11;fontColor=default;labelBackgroundColor=default;endArrow=classic;" edge="1" parent="1" source="7WkuZBkf-DycrFU24cev-2" target="7WkuZBkf-DycrFU24cev-1">
          <mxGeometry relative="1" as="geometry">
            <Array as="points">
              <mxPoint x="125" y="170" />
              <mxPoint x="20" y="170" />
              <mxPoint x="20" y="323" />
            </Array>
          </mxGeometry>
        </mxCell>
        <mxCell id="7WkuZBkf-DycrFU24cev-2" value="inactive billing" style="rounded=1;whiteSpace=wrap;html=1;" vertex="1" parent="1">
          <mxGeometry x="40" y="120" width="170" height="30" as="geometry" />
        </mxCell>
        <mxCell id="7WkuZBkf-DycrFU24cev-12" value="" style="edgeStyle=orthogonalEdgeStyle;rounded=0;orthogonalLoop=1;jettySize=auto;html=1;" edge="1" parent="1" source="7WkuZBkf-DycrFU24cev-3" target="7WkuZBkf-DycrFU24cev-8">
          <mxGeometry relative="1" as="geometry" />
        </mxCell>
        <mxCell id="7WkuZBkf-DycrFU24cev-3" value="get client defined accounts&lt;div&gt;(receivable, revenue)&lt;/div&gt;" style="rounded=1;whiteSpace=wrap;html=1;" vertex="1" parent="1">
          <mxGeometry x="280" y="120" width="180" height="40" as="geometry" />
        </mxCell>
        <mxCell id="7WkuZBkf-DycrFU24cev-48" style="edgeStyle=orthogonalEdgeStyle;shape=connector;curved=0;rounded=1;orthogonalLoop=1;jettySize=auto;html=1;entryX=0;entryY=0.5;entryDx=0;entryDy=0;strokeColor=light-dark(#000000,#CC6600);align=center;verticalAlign=middle;fontFamily=Helvetica;fontSize=11;fontColor=default;labelBackgroundColor=default;endArrow=classic;" edge="1" parent="1" source="7WkuZBkf-DycrFU24cev-4" target="7WkuZBkf-DycrFU24cev-3">
          <mxGeometry relative="1" as="geometry" />
        </mxCell>
        <mxCell id="7WkuZBkf-DycrFU24cev-4" value="scheduled activation&lt;div&gt;&lt;font style=&quot;font-size: 9px;&quot;&gt;(1st day of the month, monthly)&lt;/font&gt;&lt;/div&gt;" style="rounded=1;whiteSpace=wrap;html=1;" vertex="1" parent="1">
          <mxGeometry x="40" y="200" width="170" height="60" as="geometry" />
        </mxCell>
        <mxCell id="7WkuZBkf-DycrFU24cev-5" value="Billing" style="text;html=1;align=center;verticalAlign=middle;whiteSpace=wrap;rounded=0;" vertex="1" parent="1">
          <mxGeometry x="95" y="40" width="60" height="30" as="geometry" />
        </mxCell>
        <mxCell id="7WkuZBkf-DycrFU24cev-6" value="Journal Entry" style="text;html=1;align=center;verticalAlign=middle;whiteSpace=wrap;rounded=0;" vertex="1" parent="1">
          <mxGeometry x="300" y="40" width="120" height="30" as="geometry" />
        </mxCell>
        <mxCell id="7WkuZBkf-DycrFU24cev-18" style="edgeStyle=orthogonalEdgeStyle;rounded=0;orthogonalLoop=1;jettySize=auto;html=1;entryX=0.5;entryY=0;entryDx=0;entryDy=0;" edge="1" parent="1" source="7WkuZBkf-DycrFU24cev-7" target="7WkuZBkf-DycrFU24cev-17">
          <mxGeometry relative="1" as="geometry" />
        </mxCell>
        <mxCell id="7WkuZBkf-DycrFU24cev-7" value="get default accounts&lt;div&gt;(receivable, revenue, payable)&lt;/div&gt;" style="rounded=1;whiteSpace=wrap;html=1;" vertex="1" parent="1">
          <mxGeometry x="280" y="300" width="180" height="40" as="geometry" />
        </mxCell>
        <mxCell id="7WkuZBkf-DycrFU24cev-9" style="edgeStyle=orthogonalEdgeStyle;rounded=0;orthogonalLoop=1;jettySize=auto;html=1;entryX=0.5;entryY=0;entryDx=0;entryDy=0;" edge="1" parent="1" source="7WkuZBkf-DycrFU24cev-8" target="7WkuZBkf-DycrFU24cev-7">
          <mxGeometry relative="1" as="geometry" />
        </mxCell>
        <mxCell id="7WkuZBkf-DycrFU24cev-10" value="No" style="edgeLabel;html=1;align=center;verticalAlign=middle;resizable=0;points=[];" vertex="1" connectable="0" parent="7WkuZBkf-DycrFU24cev-9">
          <mxGeometry x="-0.1946" y="-1" relative="1" as="geometry">
            <mxPoint as="offset" />
          </mxGeometry>
        </mxCell>
        <mxCell id="7WkuZBkf-DycrFU24cev-8" value="is defined?" style="rhombus;whiteSpace=wrap;html=1;" vertex="1" parent="1">
          <mxGeometry x="320" y="190" width="100" height="60" as="geometry" />
        </mxCell>
        <mxCell id="7WkuZBkf-DycrFU24cev-20" style="edgeStyle=orthogonalEdgeStyle;rounded=0;orthogonalLoop=1;jettySize=auto;html=1;entryX=0.5;entryY=0;entryDx=0;entryDy=0;" edge="1" parent="1" source="7WkuZBkf-DycrFU24cev-14" target="7WkuZBkf-DycrFU24cev-15">
          <mxGeometry relative="1" as="geometry" />
        </mxCell>
        <mxCell id="7WkuZBkf-DycrFU24cev-14" value="&lt;div&gt;&lt;span style=&quot;background-color: transparent; color: light-dark(rgb(0, 0, 0), rgb(255, 255, 255));&quot;&gt;debit = receivable account&lt;/span&gt;&lt;/div&gt;&lt;div&gt;billing total cost&lt;/div&gt;" style="rounded=1;whiteSpace=wrap;html=1;" vertex="1" parent="1">
          <mxGeometry x="280" y="430" width="180" height="50" as="geometry" />
        </mxCell>
        <mxCell id="7WkuZBkf-DycrFU24cev-22" style="edgeStyle=orthogonalEdgeStyle;rounded=0;orthogonalLoop=1;jettySize=auto;html=1;entryX=0.5;entryY=0;entryDx=0;entryDy=0;" edge="1" parent="1" source="7WkuZBkf-DycrFU24cev-15" target="7WkuZBkf-DycrFU24cev-16">
          <mxGeometry relative="1" as="geometry" />
        </mxCell>
        <mxCell id="7WkuZBkf-DycrFU24cev-15" value="&lt;div&gt;&lt;span style=&quot;background-color: transparent; color: light-dark(rgb(0, 0, 0), rgb(255, 255, 255));&quot;&gt;credit = revenue account&lt;/span&gt;&lt;/div&gt;&lt;div&gt;billing total cost - vat&lt;/div&gt;" style="rounded=1;whiteSpace=wrap;html=1;" vertex="1" parent="1">
          <mxGeometry x="280" y="500" width="180" height="50" as="geometry" />
        </mxCell>
        <mxCell id="7WkuZBkf-DycrFU24cev-30" style="edgeStyle=orthogonalEdgeStyle;shape=connector;curved=0;rounded=1;orthogonalLoop=1;jettySize=auto;html=1;entryX=0;entryY=0.5;entryDx=0;entryDy=0;strokeColor=light-dark(#000000,#CC6600);align=center;verticalAlign=middle;fontFamily=Helvetica;fontSize=11;fontColor=default;labelBackgroundColor=default;endArrow=classic;" edge="1" parent="1" source="7WkuZBkf-DycrFU24cev-16" target="7WkuZBkf-DycrFU24cev-28">
          <mxGeometry relative="1" as="geometry" />
        </mxCell>
        <mxCell id="7WkuZBkf-DycrFU24cev-16" value="&lt;div&gt;&lt;span style=&quot;background-color: transparent; color: light-dark(rgb(0, 0, 0), rgb(255, 255, 255));&quot;&gt;credit = payable account&lt;/span&gt;&lt;/div&gt;&lt;div&gt;vat&lt;/div&gt;" style="rounded=1;whiteSpace=wrap;html=1;" vertex="1" parent="1">
          <mxGeometry x="280" y="570" width="180" height="50" as="geometry" />
        </mxCell>
        <mxCell id="7WkuZBkf-DycrFU24cev-19" style="edgeStyle=orthogonalEdgeStyle;rounded=0;orthogonalLoop=1;jettySize=auto;html=1;entryX=0.5;entryY=0;entryDx=0;entryDy=0;" edge="1" parent="1" source="7WkuZBkf-DycrFU24cev-17" target="7WkuZBkf-DycrFU24cev-14">
          <mxGeometry relative="1" as="geometry" />
        </mxCell>
        <mxCell id="7WkuZBkf-DycrFU24cev-17" value="record to journal entry" style="rounded=1;whiteSpace=wrap;html=1;" vertex="1" parent="1">
          <mxGeometry x="280" y="370" width="180" height="40" as="geometry" />
        </mxCell>
        <mxCell id="7WkuZBkf-DycrFU24cev-23" value="Chart of Account Balance" style="text;html=1;align=center;verticalAlign=middle;whiteSpace=wrap;rounded=0;" vertex="1" parent="1">
          <mxGeometry x="580" y="40" width="190" height="30" as="geometry" />
        </mxCell>
        <mxCell id="7WkuZBkf-DycrFU24cev-41" style="edgeStyle=orthogonalEdgeStyle;shape=connector;curved=0;rounded=1;orthogonalLoop=1;jettySize=auto;html=1;entryX=0.5;entryY=0;entryDx=0;entryDy=0;strokeColor=light-dark(#000000,#CC6600);align=center;verticalAlign=middle;fontFamily=Helvetica;fontSize=11;fontColor=default;labelBackgroundColor=default;endArrow=classic;" edge="1" parent="1" source="7WkuZBkf-DycrFU24cev-28" target="7WkuZBkf-DycrFU24cev-29">
          <mxGeometry relative="1" as="geometry" />
        </mxCell>
        <mxCell id="7WkuZBkf-DycrFU24cev-28" value="get accounting calendar by transaction date" style="rounded=1;whiteSpace=wrap;html=1;" vertex="1" parent="1">
          <mxGeometry x="580" y="120" width="180" height="40" as="geometry" />
        </mxCell>
        <mxCell id="7WkuZBkf-DycrFU24cev-42" style="edgeStyle=orthogonalEdgeStyle;shape=connector;curved=0;rounded=1;orthogonalLoop=1;jettySize=auto;html=1;strokeColor=light-dark(#000000,#CC6600);align=center;verticalAlign=middle;fontFamily=Helvetica;fontSize=11;fontColor=default;labelBackgroundColor=default;endArrow=classic;" edge="1" parent="1" source="7WkuZBkf-DycrFU24cev-29" target="7WkuZBkf-DycrFU24cev-34">
          <mxGeometry relative="1" as="geometry" />
        </mxCell>
        <mxCell id="7WkuZBkf-DycrFU24cev-29" value="get all accounting calendar with the same quarter" style="rounded=1;whiteSpace=wrap;html=1;" vertex="1" parent="1">
          <mxGeometry x="580" y="190" width="180" height="40" as="geometry" />
        </mxCell>
        <mxCell id="7WkuZBkf-DycrFU24cev-32" style="edgeStyle=orthogonalEdgeStyle;shape=connector;curved=0;rounded=1;orthogonalLoop=1;jettySize=auto;html=1;entryX=0.999;entryY=0.598;entryDx=0;entryDy=0;entryPerimeter=0;strokeColor=light-dark(#000000,#CC6600);align=center;verticalAlign=middle;fontFamily=Helvetica;fontSize=11;fontColor=default;labelBackgroundColor=default;endArrow=classic;" edge="1" parent="1" source="7WkuZBkf-DycrFU24cev-8" target="7WkuZBkf-DycrFU24cev-17">
          <mxGeometry relative="1" as="geometry">
            <Array as="points">
              <mxPoint x="480" y="220" />
              <mxPoint x="480" y="394" />
            </Array>
          </mxGeometry>
        </mxCell>
        <mxCell id="7WkuZBkf-DycrFU24cev-33" value="yes" style="edgeLabel;html=1;align=center;verticalAlign=middle;resizable=0;points=[];fontFamily=Helvetica;fontSize=11;fontColor=default;labelBackgroundColor=default;" vertex="1" connectable="0" parent="7WkuZBkf-DycrFU24cev-32">
          <mxGeometry x="0.0878" y="-1" relative="1" as="geometry">
            <mxPoint as="offset" />
          </mxGeometry>
        </mxCell>
        <mxCell id="7WkuZBkf-DycrFU24cev-45" style="edgeStyle=orthogonalEdgeStyle;shape=connector;curved=0;rounded=1;orthogonalLoop=1;jettySize=auto;html=1;entryX=0.5;entryY=0;entryDx=0;entryDy=0;strokeColor=light-dark(#000000,#CC6600);align=center;verticalAlign=middle;fontFamily=Helvetica;fontSize=11;fontColor=default;labelBackgroundColor=default;endArrow=classic;" edge="1" parent="1" source="7WkuZBkf-DycrFU24cev-34" target="7WkuZBkf-DycrFU24cev-40">
          <mxGeometry relative="1" as="geometry" />
        </mxCell>
        <mxCell id="7WkuZBkf-DycrFU24cev-34" value="update coa balance for each quarter per entry in journal" style="rounded=1;whiteSpace=wrap;html=1;" vertex="1" parent="1">
          <mxGeometry x="580" y="260" width="180" height="40" as="geometry" />
        </mxCell>
        <mxCell id="7WkuZBkf-DycrFU24cev-39" style="edgeStyle=orthogonalEdgeStyle;shape=connector;curved=0;rounded=1;orthogonalLoop=1;jettySize=auto;html=1;strokeColor=light-dark(#000000,#CC6600);align=center;verticalAlign=middle;fontFamily=Helvetica;fontSize=11;fontColor=default;labelBackgroundColor=default;endArrow=classic;" edge="1" parent="1" source="7WkuZBkf-DycrFU24cev-37" target="7WkuZBkf-DycrFU24cev-2">
          <mxGeometry relative="1" as="geometry" />
        </mxCell>
        <mxCell id="7WkuZBkf-DycrFU24cev-37" value="start" style="rounded=1;whiteSpace=wrap;html=1;arcSize=50;" vertex="1" parent="1">
          <mxGeometry x="-120" y="117.5" width="100" height="35" as="geometry" />
        </mxCell>
        <mxCell id="7WkuZBkf-DycrFU24cev-40" value="end" style="rounded=1;whiteSpace=wrap;html=1;arcSize=50;" vertex="1" parent="1">
          <mxGeometry x="620" y="330" width="100" height="35" as="geometry" />
        </mxCell>
      </root>
    </mxGraphModel>
  </diagram>
  <diagram name="Payment Billing" id="5r1EvKSBF84LIN2HUR2w">
    <mxGraphModel dx="2284" dy="772" grid="1" gridSize="10" guides="1" tooltips="1" connect="1" arrows="1" fold="1" page="1" pageScale="1" pageWidth="850" pageHeight="1100" math="0" shadow="0">
      <root>
        <mxCell id="zebTWVf3aDX02Zw_EtQp-0" />
        <mxCell id="zebTWVf3aDX02Zw_EtQp-1" parent="zebTWVf3aDX02Zw_EtQp-0" />
        <mxCell id="zebTWVf3aDX02Zw_EtQp-6" value="validate payment request" style="rounded=1;whiteSpace=wrap;html=1;" vertex="1" parent="zebTWVf3aDX02Zw_EtQp-1">
          <mxGeometry x="40" y="120" width="170" height="30" as="geometry" />
        </mxCell>
        <mxCell id="zebTWVf3aDX02Zw_EtQp-7" value="" style="edgeStyle=orthogonalEdgeStyle;rounded=0;orthogonalLoop=1;jettySize=auto;html=1;" edge="1" parent="zebTWVf3aDX02Zw_EtQp-1" source="zebTWVf3aDX02Zw_EtQp-8" target="zebTWVf3aDX02Zw_EtQp-17">
          <mxGeometry relative="1" as="geometry" />
        </mxCell>
        <mxCell id="zebTWVf3aDX02Zw_EtQp-8" value="get client defined accounts&lt;div&gt;(receivable, revenue)&lt;/div&gt;" style="rounded=1;whiteSpace=wrap;html=1;" vertex="1" parent="zebTWVf3aDX02Zw_EtQp-1">
          <mxGeometry x="280" y="120" width="180" height="40" as="geometry" />
        </mxCell>
        <mxCell id="zebTWVf3aDX02Zw_EtQp-11" value="Billing" style="text;html=1;align=center;verticalAlign=middle;whiteSpace=wrap;rounded=0;" vertex="1" parent="zebTWVf3aDX02Zw_EtQp-1">
          <mxGeometry x="95" y="40" width="60" height="30" as="geometry" />
        </mxCell>
        <mxCell id="zebTWVf3aDX02Zw_EtQp-12" value="Journal Entry" style="text;html=1;align=center;verticalAlign=middle;whiteSpace=wrap;rounded=0;" vertex="1" parent="zebTWVf3aDX02Zw_EtQp-1">
          <mxGeometry x="300" y="40" width="120" height="30" as="geometry" />
        </mxCell>
        <mxCell id="zebTWVf3aDX02Zw_EtQp-13" style="edgeStyle=orthogonalEdgeStyle;rounded=0;orthogonalLoop=1;jettySize=auto;html=1;entryX=0.5;entryY=0;entryDx=0;entryDy=0;" edge="1" parent="zebTWVf3aDX02Zw_EtQp-1" source="zebTWVf3aDX02Zw_EtQp-14" target="zebTWVf3aDX02Zw_EtQp-25">
          <mxGeometry relative="1" as="geometry" />
        </mxCell>
        <mxCell id="zebTWVf3aDX02Zw_EtQp-14" value="get default accounts&lt;div&gt;(receivable, revenue, payable)&lt;/div&gt;" style="rounded=1;whiteSpace=wrap;html=1;" vertex="1" parent="zebTWVf3aDX02Zw_EtQp-1">
          <mxGeometry x="280" y="300" width="180" height="40" as="geometry" />
        </mxCell>
        <mxCell id="zebTWVf3aDX02Zw_EtQp-15" style="edgeStyle=orthogonalEdgeStyle;rounded=0;orthogonalLoop=1;jettySize=auto;html=1;entryX=0.5;entryY=0;entryDx=0;entryDy=0;" edge="1" parent="zebTWVf3aDX02Zw_EtQp-1" source="zebTWVf3aDX02Zw_EtQp-17" target="zebTWVf3aDX02Zw_EtQp-14">
          <mxGeometry relative="1" as="geometry" />
        </mxCell>
        <mxCell id="zebTWVf3aDX02Zw_EtQp-16" value="No" style="edgeLabel;html=1;align=center;verticalAlign=middle;resizable=0;points=[];" vertex="1" connectable="0" parent="zebTWVf3aDX02Zw_EtQp-15">
          <mxGeometry x="-0.1946" y="-1" relative="1" as="geometry">
            <mxPoint as="offset" />
          </mxGeometry>
        </mxCell>
        <mxCell id="zebTWVf3aDX02Zw_EtQp-17" value="is defined?" style="rhombus;whiteSpace=wrap;html=1;" vertex="1" parent="zebTWVf3aDX02Zw_EtQp-1">
          <mxGeometry x="320" y="190" width="100" height="60" as="geometry" />
        </mxCell>
        <mxCell id="zebTWVf3aDX02Zw_EtQp-18" style="edgeStyle=orthogonalEdgeStyle;rounded=0;orthogonalLoop=1;jettySize=auto;html=1;entryX=0.5;entryY=0;entryDx=0;entryDy=0;" edge="1" parent="zebTWVf3aDX02Zw_EtQp-1" source="zebTWVf3aDX02Zw_EtQp-19" target="zebTWVf3aDX02Zw_EtQp-21">
          <mxGeometry relative="1" as="geometry" />
        </mxCell>
        <mxCell id="zebTWVf3aDX02Zw_EtQp-19" value="&lt;div&gt;&lt;span style=&quot;background-color: transparent; color: light-dark(rgb(0, 0, 0), rgb(255, 255, 255));&quot;&gt;debit = receivable account&lt;/span&gt;&lt;/div&gt;&lt;div&gt;payment amount&lt;/div&gt;" style="rounded=1;whiteSpace=wrap;html=1;" vertex="1" parent="zebTWVf3aDX02Zw_EtQp-1">
          <mxGeometry x="280" y="430" width="180" height="50" as="geometry" />
        </mxCell>
        <mxCell id="zebTWVf3aDX02Zw_EtQp-20" style="edgeStyle=orthogonalEdgeStyle;rounded=0;orthogonalLoop=1;jettySize=auto;html=1;entryX=0.5;entryY=0;entryDx=0;entryDy=0;" edge="1" parent="zebTWVf3aDX02Zw_EtQp-1" source="zebTWVf3aDX02Zw_EtQp-21" target="zebTWVf3aDX02Zw_EtQp-23">
          <mxGeometry relative="1" as="geometry" />
        </mxCell>
        <mxCell id="zebTWVf3aDX02Zw_EtQp-21" value="&lt;div&gt;&lt;span style=&quot;background-color: transparent; color: light-dark(rgb(0, 0, 0), rgb(255, 255, 255));&quot;&gt;credit = revenue account&lt;/span&gt;&lt;/div&gt;&lt;div&gt;payment amount - vat&lt;/div&gt;" style="rounded=1;whiteSpace=wrap;html=1;" vertex="1" parent="zebTWVf3aDX02Zw_EtQp-1">
          <mxGeometry x="280" y="500" width="180" height="50" as="geometry" />
        </mxCell>
        <mxCell id="zebTWVf3aDX02Zw_EtQp-22" style="edgeStyle=orthogonalEdgeStyle;shape=connector;curved=0;rounded=1;orthogonalLoop=1;jettySize=auto;html=1;entryX=0;entryY=0.5;entryDx=0;entryDy=0;strokeColor=light-dark(#000000,#CC6600);align=center;verticalAlign=middle;fontFamily=Helvetica;fontSize=11;fontColor=default;labelBackgroundColor=default;endArrow=classic;" edge="1" parent="zebTWVf3aDX02Zw_EtQp-1" source="zebTWVf3aDX02Zw_EtQp-23" target="zebTWVf3aDX02Zw_EtQp-28">
          <mxGeometry relative="1" as="geometry" />
        </mxCell>
        <mxCell id="zebTWVf3aDX02Zw_EtQp-23" value="&lt;div&gt;&lt;span style=&quot;background-color: transparent; color: light-dark(rgb(0, 0, 0), rgb(255, 255, 255));&quot;&gt;credit = payable account&lt;/span&gt;&lt;/div&gt;&lt;div&gt;vat&lt;/div&gt;" style="rounded=1;whiteSpace=wrap;html=1;" vertex="1" parent="zebTWVf3aDX02Zw_EtQp-1">
          <mxGeometry x="280" y="570" width="180" height="50" as="geometry" />
        </mxCell>
        <mxCell id="zebTWVf3aDX02Zw_EtQp-24" style="edgeStyle=orthogonalEdgeStyle;rounded=0;orthogonalLoop=1;jettySize=auto;html=1;entryX=0.5;entryY=0;entryDx=0;entryDy=0;" edge="1" parent="zebTWVf3aDX02Zw_EtQp-1" source="zebTWVf3aDX02Zw_EtQp-25" target="zebTWVf3aDX02Zw_EtQp-19">
          <mxGeometry relative="1" as="geometry" />
        </mxCell>
        <mxCell id="zebTWVf3aDX02Zw_EtQp-25" value="record to journal entry" style="rounded=1;whiteSpace=wrap;html=1;" vertex="1" parent="zebTWVf3aDX02Zw_EtQp-1">
          <mxGeometry x="280" y="370" width="180" height="40" as="geometry" />
        </mxCell>
        <mxCell id="zebTWVf3aDX02Zw_EtQp-26" value="Chart of Account Balance" style="text;html=1;align=center;verticalAlign=middle;whiteSpace=wrap;rounded=0;" vertex="1" parent="zebTWVf3aDX02Zw_EtQp-1">
          <mxGeometry x="580" y="40" width="190" height="30" as="geometry" />
        </mxCell>
        <mxCell id="zebTWVf3aDX02Zw_EtQp-27" style="edgeStyle=orthogonalEdgeStyle;shape=connector;curved=0;rounded=1;orthogonalLoop=1;jettySize=auto;html=1;entryX=0.5;entryY=0;entryDx=0;entryDy=0;strokeColor=light-dark(#000000,#CC6600);align=center;verticalAlign=middle;fontFamily=Helvetica;fontSize=11;fontColor=default;labelBackgroundColor=default;endArrow=classic;" edge="1" parent="zebTWVf3aDX02Zw_EtQp-1" source="zebTWVf3aDX02Zw_EtQp-28" target="zebTWVf3aDX02Zw_EtQp-30">
          <mxGeometry relative="1" as="geometry" />
        </mxCell>
        <mxCell id="zebTWVf3aDX02Zw_EtQp-28" value="get accounting calendar by transaction date" style="rounded=1;whiteSpace=wrap;html=1;" vertex="1" parent="zebTWVf3aDX02Zw_EtQp-1">
          <mxGeometry x="580" y="120" width="180" height="40" as="geometry" />
        </mxCell>
        <mxCell id="zebTWVf3aDX02Zw_EtQp-29" style="edgeStyle=orthogonalEdgeStyle;shape=connector;curved=0;rounded=1;orthogonalLoop=1;jettySize=auto;html=1;strokeColor=light-dark(#000000,#CC6600);align=center;verticalAlign=middle;fontFamily=Helvetica;fontSize=11;fontColor=default;labelBackgroundColor=default;endArrow=classic;" edge="1" parent="zebTWVf3aDX02Zw_EtQp-1" source="zebTWVf3aDX02Zw_EtQp-30" target="zebTWVf3aDX02Zw_EtQp-34">
          <mxGeometry relative="1" as="geometry" />
        </mxCell>
        <mxCell id="zebTWVf3aDX02Zw_EtQp-30" value="get all accounting calendar with the same quarter" style="rounded=1;whiteSpace=wrap;html=1;" vertex="1" parent="zebTWVf3aDX02Zw_EtQp-1">
          <mxGeometry x="580" y="190" width="180" height="40" as="geometry" />
        </mxCell>
        <mxCell id="zebTWVf3aDX02Zw_EtQp-31" style="edgeStyle=orthogonalEdgeStyle;shape=connector;curved=0;rounded=1;orthogonalLoop=1;jettySize=auto;html=1;entryX=0.999;entryY=0.598;entryDx=0;entryDy=0;entryPerimeter=0;strokeColor=light-dark(#000000,#CC6600);align=center;verticalAlign=middle;fontFamily=Helvetica;fontSize=11;fontColor=default;labelBackgroundColor=default;endArrow=classic;" edge="1" parent="zebTWVf3aDX02Zw_EtQp-1" source="zebTWVf3aDX02Zw_EtQp-17" target="zebTWVf3aDX02Zw_EtQp-25">
          <mxGeometry relative="1" as="geometry">
            <Array as="points">
              <mxPoint x="480" y="220" />
              <mxPoint x="480" y="394" />
            </Array>
          </mxGeometry>
        </mxCell>
        <mxCell id="zebTWVf3aDX02Zw_EtQp-32" value="yes" style="edgeLabel;html=1;align=center;verticalAlign=middle;resizable=0;points=[];fontFamily=Helvetica;fontSize=11;fontColor=default;labelBackgroundColor=default;" vertex="1" connectable="0" parent="zebTWVf3aDX02Zw_EtQp-31">
          <mxGeometry x="0.0878" y="-1" relative="1" as="geometry">
            <mxPoint as="offset" />
          </mxGeometry>
        </mxCell>
        <mxCell id="zebTWVf3aDX02Zw_EtQp-33" style="edgeStyle=orthogonalEdgeStyle;shape=connector;curved=0;rounded=1;orthogonalLoop=1;jettySize=auto;html=1;entryX=0.5;entryY=0;entryDx=0;entryDy=0;strokeColor=light-dark(#000000,#CC6600);align=center;verticalAlign=middle;fontFamily=Helvetica;fontSize=11;fontColor=default;labelBackgroundColor=default;endArrow=classic;" edge="1" parent="zebTWVf3aDX02Zw_EtQp-1" source="zebTWVf3aDX02Zw_EtQp-34" target="zebTWVf3aDX02Zw_EtQp-37">
          <mxGeometry relative="1" as="geometry" />
        </mxCell>
        <mxCell id="zebTWVf3aDX02Zw_EtQp-34" value="update coa balance for each quarter per entry in journal" style="rounded=1;whiteSpace=wrap;html=1;" vertex="1" parent="zebTWVf3aDX02Zw_EtQp-1">
          <mxGeometry x="580" y="260" width="180" height="40" as="geometry" />
        </mxCell>
        <mxCell id="zebTWVf3aDX02Zw_EtQp-35" style="edgeStyle=orthogonalEdgeStyle;shape=connector;curved=0;rounded=1;orthogonalLoop=1;jettySize=auto;html=1;strokeColor=light-dark(#000000,#CC6600);align=center;verticalAlign=middle;fontFamily=Helvetica;fontSize=11;fontColor=default;labelBackgroundColor=default;endArrow=classic;" edge="1" parent="zebTWVf3aDX02Zw_EtQp-1" source="zebTWVf3aDX02Zw_EtQp-36" target="zebTWVf3aDX02Zw_EtQp-6">
          <mxGeometry relative="1" as="geometry" />
        </mxCell>
        <mxCell id="zebTWVf3aDX02Zw_EtQp-36" value="start" style="rounded=1;whiteSpace=wrap;html=1;arcSize=50;" vertex="1" parent="zebTWVf3aDX02Zw_EtQp-1">
          <mxGeometry x="-120" y="117.5" width="100" height="35" as="geometry" />
        </mxCell>
        <mxCell id="zebTWVf3aDX02Zw_EtQp-37" value="end" style="rounded=1;whiteSpace=wrap;html=1;arcSize=50;" vertex="1" parent="zebTWVf3aDX02Zw_EtQp-1">
          <mxGeometry x="620" y="330" width="100" height="35" as="geometry" />
        </mxCell>
        <mxCell id="mkjqIkJUqHzkOj3SL6zc-9" style="edgeStyle=orthogonalEdgeStyle;shape=connector;curved=0;rounded=1;orthogonalLoop=1;jettySize=auto;html=1;entryX=0.5;entryY=0;entryDx=0;entryDy=0;strokeColor=light-dark(#000000,#CC6600);align=center;verticalAlign=middle;fontFamily=Helvetica;fontSize=11;fontColor=default;labelBackgroundColor=default;endArrow=classic;" edge="1" parent="zebTWVf3aDX02Zw_EtQp-1" source="mkjqIkJUqHzkOj3SL6zc-0" target="mkjqIkJUqHzkOj3SL6zc-8">
          <mxGeometry relative="1" as="geometry" />
        </mxCell>
        <mxCell id="mkjqIkJUqHzkOj3SL6zc-0" value="allocate payment to billing that is unpaid/partial and active (fifo)" style="rounded=1;whiteSpace=wrap;html=1;" vertex="1" parent="zebTWVf3aDX02Zw_EtQp-1">
          <mxGeometry x="40" y="370" width="170" height="60" as="geometry" />
        </mxCell>
        <mxCell id="mkjqIkJUqHzkOj3SL6zc-3" style="edgeStyle=orthogonalEdgeStyle;shape=connector;curved=0;rounded=1;orthogonalLoop=1;jettySize=auto;html=1;strokeColor=light-dark(#000000,#CC6600);align=center;verticalAlign=middle;fontFamily=Helvetica;fontSize=11;fontColor=default;labelBackgroundColor=default;endArrow=classic;" edge="1" parent="zebTWVf3aDX02Zw_EtQp-1" source="mkjqIkJUqHzkOj3SL6zc-1" target="mkjqIkJUqHzkOj3SL6zc-16">
          <mxGeometry relative="1" as="geometry">
            <mxPoint x="10" y="230" as="targetPoint" />
          </mxGeometry>
        </mxCell>
        <mxCell id="mkjqIkJUqHzkOj3SL6zc-18" value="yes" style="edgeLabel;html=1;align=center;verticalAlign=middle;resizable=0;points=[];fontFamily=Helvetica;fontSize=11;fontColor=default;labelBackgroundColor=default;" vertex="1" connectable="0" parent="mkjqIkJUqHzkOj3SL6zc-3">
          <mxGeometry x="-0.2308" y="2" relative="1" as="geometry">
            <mxPoint as="offset" />
          </mxGeometry>
        </mxCell>
        <mxCell id="mkjqIkJUqHzkOj3SL6zc-14" style="edgeStyle=orthogonalEdgeStyle;shape=connector;curved=0;rounded=1;orthogonalLoop=1;jettySize=auto;html=1;strokeColor=light-dark(#000000,#CC6600);align=center;verticalAlign=middle;fontFamily=Helvetica;fontSize=11;fontColor=default;labelBackgroundColor=default;endArrow=classic;" edge="1" parent="zebTWVf3aDX02Zw_EtQp-1" source="mkjqIkJUqHzkOj3SL6zc-1" target="mkjqIkJUqHzkOj3SL6zc-7">
          <mxGeometry relative="1" as="geometry" />
        </mxCell>
        <mxCell id="mkjqIkJUqHzkOj3SL6zc-15" value="NO" style="edgeLabel;html=1;align=center;verticalAlign=middle;resizable=0;points=[];fontFamily=Helvetica;fontSize=11;fontColor=default;labelBackgroundColor=default;" vertex="1" connectable="0" parent="mkjqIkJUqHzkOj3SL6zc-14">
          <mxGeometry x="-0.32" y="1" relative="1" as="geometry">
            <mxPoint as="offset" />
          </mxGeometry>
        </mxCell>
        <mxCell id="mkjqIkJUqHzkOj3SL6zc-1" value="validation failed" style="rhombus;whiteSpace=wrap;html=1;fontFamily=Helvetica;fontSize=11;fontColor=default;labelBackgroundColor=default;" vertex="1" parent="zebTWVf3aDX02Zw_EtQp-1">
          <mxGeometry x="77.5" y="190" width="95" height="80" as="geometry" />
        </mxCell>
        <mxCell id="mkjqIkJUqHzkOj3SL6zc-2" style="edgeStyle=orthogonalEdgeStyle;shape=connector;curved=0;rounded=1;orthogonalLoop=1;jettySize=auto;html=1;entryX=0.494;entryY=0.07;entryDx=0;entryDy=0;entryPerimeter=0;strokeColor=light-dark(#000000,#CC6600);align=center;verticalAlign=middle;fontFamily=Helvetica;fontSize=11;fontColor=default;labelBackgroundColor=default;endArrow=classic;" edge="1" parent="zebTWVf3aDX02Zw_EtQp-1" source="zebTWVf3aDX02Zw_EtQp-6" target="mkjqIkJUqHzkOj3SL6zc-1">
          <mxGeometry relative="1" as="geometry" />
        </mxCell>
        <mxCell id="mkjqIkJUqHzkOj3SL6zc-10" style="edgeStyle=orthogonalEdgeStyle;shape=connector;curved=0;rounded=1;orthogonalLoop=1;jettySize=auto;html=1;entryX=0.5;entryY=0;entryDx=0;entryDy=0;strokeColor=light-dark(#000000,#CC6600);align=center;verticalAlign=middle;fontFamily=Helvetica;fontSize=11;fontColor=default;labelBackgroundColor=default;endArrow=classic;" edge="1" parent="zebTWVf3aDX02Zw_EtQp-1" source="mkjqIkJUqHzkOj3SL6zc-7" target="mkjqIkJUqHzkOj3SL6zc-0">
          <mxGeometry relative="1" as="geometry" />
        </mxCell>
        <mxCell id="mkjqIkJUqHzkOj3SL6zc-7" value="save payment" style="rounded=1;whiteSpace=wrap;html=1;" vertex="1" parent="zebTWVf3aDX02Zw_EtQp-1">
          <mxGeometry x="40" y="320" width="170" height="30" as="geometry" />
        </mxCell>
        <mxCell id="mkjqIkJUqHzkOj3SL6zc-17" style="edgeStyle=orthogonalEdgeStyle;shape=connector;curved=0;rounded=1;orthogonalLoop=1;jettySize=auto;html=1;exitX=1;exitY=0.5;exitDx=0;exitDy=0;entryX=0;entryY=0.5;entryDx=0;entryDy=0;strokeColor=light-dark(#000000,#CC6600);align=center;verticalAlign=middle;fontFamily=Helvetica;fontSize=11;fontColor=default;labelBackgroundColor=default;endArrow=classic;" edge="1" parent="zebTWVf3aDX02Zw_EtQp-1" source="mkjqIkJUqHzkOj3SL6zc-8" target="zebTWVf3aDX02Zw_EtQp-8">
          <mxGeometry relative="1" as="geometry" />
        </mxCell>
        <mxCell id="mkjqIkJUqHzkOj3SL6zc-8" value="mark billing items as paid.&lt;div&gt;(db process)&lt;/div&gt;" style="rounded=1;whiteSpace=wrap;html=1;" vertex="1" parent="zebTWVf3aDX02Zw_EtQp-1">
          <mxGeometry x="40" y="450" width="170" height="50" as="geometry" />
        </mxCell>
        <mxCell id="mkjqIkJUqHzkOj3SL6zc-16" value="end" style="rounded=1;whiteSpace=wrap;html=1;arcSize=50;" vertex="1" parent="zebTWVf3aDX02Zw_EtQp-1">
          <mxGeometry x="-120" y="212.5" width="100" height="35" as="geometry" />
        </mxCell>
      </root>
    </mxGraphModel>
  </diagram>
  <diagram name="Journal Entry" id="9I1VJvHlb68LbQsUlAti">
    <mxGraphModel dx="989" dy="532" grid="1" gridSize="10" guides="1" tooltips="1" connect="1" arrows="1" fold="1" page="1" pageScale="1" pageWidth="850" pageHeight="1100" math="0" shadow="0">
      <root>
        <mxCell id="UP3dKJEMZp_bju_HwEQN-0" />
        <mxCell id="UP3dKJEMZp_bju_HwEQN-1" parent="UP3dKJEMZp_bju_HwEQN-0" />
        <mxCell id="UP3dKJEMZp_bju_HwEQN-7" value="" style="edgeStyle=orthogonalEdgeStyle;rounded=0;orthogonalLoop=1;jettySize=auto;html=1;" edge="1" parent="UP3dKJEMZp_bju_HwEQN-1" target="UP3dKJEMZp_bju_HwEQN-17">
          <mxGeometry relative="1" as="geometry">
            <mxPoint x="370.0344827586207" y="379.9999999999999" as="sourcePoint" />
          </mxGeometry>
        </mxCell>
        <mxCell id="UP3dKJEMZp_bju_HwEQN-12" value="Journal Entry" style="text;html=1;align=center;verticalAlign=middle;whiteSpace=wrap;rounded=0;" vertex="1" parent="UP3dKJEMZp_bju_HwEQN-1">
          <mxGeometry x="300" y="40" width="120" height="30" as="geometry" />
        </mxCell>
        <mxCell id="UP3dKJEMZp_bju_HwEQN-13" style="edgeStyle=orthogonalEdgeStyle;rounded=0;orthogonalLoop=1;jettySize=auto;html=1;entryX=0.5;entryY=0;entryDx=0;entryDy=0;" edge="1" parent="UP3dKJEMZp_bju_HwEQN-1" target="UP3dKJEMZp_bju_HwEQN-25">
          <mxGeometry relative="1" as="geometry">
            <mxPoint x="370.0344827586207" y="210" as="sourcePoint" />
          </mxGeometry>
        </mxCell>
        <mxCell id="bATwNnxYI-AyKtaqYSiO-1" style="edgeStyle=orthogonalEdgeStyle;shape=connector;curved=0;rounded=1;orthogonalLoop=1;jettySize=auto;html=1;entryX=0;entryY=0.5;entryDx=0;entryDy=0;strokeColor=light-dark(#000000,#CC6600);align=center;verticalAlign=middle;fontFamily=Helvetica;fontSize=11;fontColor=default;labelBackgroundColor=default;endArrow=classic;" edge="1" parent="UP3dKJEMZp_bju_HwEQN-1" source="UP3dKJEMZp_bju_HwEQN-25" target="UP3dKJEMZp_bju_HwEQN-28">
          <mxGeometry relative="1" as="geometry">
            <Array as="points">
              <mxPoint x="370" y="360" />
              <mxPoint x="520" y="360" />
              <mxPoint x="520" y="140" />
            </Array>
          </mxGeometry>
        </mxCell>
        <mxCell id="UP3dKJEMZp_bju_HwEQN-25" value="record to journal entry" style="rounded=1;whiteSpace=wrap;html=1;" vertex="1" parent="UP3dKJEMZp_bju_HwEQN-1">
          <mxGeometry x="280" y="240" width="180" height="40" as="geometry" />
        </mxCell>
        <mxCell id="UP3dKJEMZp_bju_HwEQN-26" value="Chart of Account Balance" style="text;html=1;align=center;verticalAlign=middle;whiteSpace=wrap;rounded=0;" vertex="1" parent="UP3dKJEMZp_bju_HwEQN-1">
          <mxGeometry x="580" y="40" width="190" height="30" as="geometry" />
        </mxCell>
        <mxCell id="UP3dKJEMZp_bju_HwEQN-27" style="edgeStyle=orthogonalEdgeStyle;shape=connector;curved=0;rounded=1;orthogonalLoop=1;jettySize=auto;html=1;entryX=0.5;entryY=0;entryDx=0;entryDy=0;strokeColor=light-dark(#000000,#CC6600);align=center;verticalAlign=middle;fontFamily=Helvetica;fontSize=11;fontColor=default;labelBackgroundColor=default;endArrow=classic;" edge="1" parent="UP3dKJEMZp_bju_HwEQN-1" source="UP3dKJEMZp_bju_HwEQN-28" target="UP3dKJEMZp_bju_HwEQN-30">
          <mxGeometry relative="1" as="geometry" />
        </mxCell>
        <mxCell id="UP3dKJEMZp_bju_HwEQN-28" value="get accounting calendar by transaction date" style="rounded=1;whiteSpace=wrap;html=1;" vertex="1" parent="UP3dKJEMZp_bju_HwEQN-1">
          <mxGeometry x="580" y="120" width="180" height="40" as="geometry" />
        </mxCell>
        <mxCell id="UP3dKJEMZp_bju_HwEQN-29" style="edgeStyle=orthogonalEdgeStyle;shape=connector;curved=0;rounded=1;orthogonalLoop=1;jettySize=auto;html=1;strokeColor=light-dark(#000000,#CC6600);align=center;verticalAlign=middle;fontFamily=Helvetica;fontSize=11;fontColor=default;labelBackgroundColor=default;endArrow=classic;" edge="1" parent="UP3dKJEMZp_bju_HwEQN-1" source="UP3dKJEMZp_bju_HwEQN-30" target="UP3dKJEMZp_bju_HwEQN-34">
          <mxGeometry relative="1" as="geometry" />
        </mxCell>
        <mxCell id="UP3dKJEMZp_bju_HwEQN-30" value="get all accounting calendar with the same quarter" style="rounded=1;whiteSpace=wrap;html=1;" vertex="1" parent="UP3dKJEMZp_bju_HwEQN-1">
          <mxGeometry x="580" y="190" width="180" height="40" as="geometry" />
        </mxCell>
        <mxCell id="UP3dKJEMZp_bju_HwEQN-33" style="edgeStyle=orthogonalEdgeStyle;shape=connector;curved=0;rounded=1;orthogonalLoop=1;jettySize=auto;html=1;entryX=0.5;entryY=0;entryDx=0;entryDy=0;strokeColor=light-dark(#000000,#CC6600);align=center;verticalAlign=middle;fontFamily=Helvetica;fontSize=11;fontColor=default;labelBackgroundColor=default;endArrow=classic;" edge="1" parent="UP3dKJEMZp_bju_HwEQN-1" source="UP3dKJEMZp_bju_HwEQN-34" target="UP3dKJEMZp_bju_HwEQN-37">
          <mxGeometry relative="1" as="geometry" />
        </mxCell>
        <mxCell id="UP3dKJEMZp_bju_HwEQN-34" value="update coa balance for each quarter per entry in journal" style="rounded=1;whiteSpace=wrap;html=1;" vertex="1" parent="UP3dKJEMZp_bju_HwEQN-1">
          <mxGeometry x="580" y="260" width="180" height="40" as="geometry" />
        </mxCell>
        <mxCell id="UP3dKJEMZp_bju_HwEQN-37" value="end" style="rounded=1;whiteSpace=wrap;html=1;arcSize=50;" vertex="1" parent="UP3dKJEMZp_bju_HwEQN-1">
          <mxGeometry x="620" y="330" width="100" height="35" as="geometry" />
        </mxCell>
        <mxCell id="bATwNnxYI-AyKtaqYSiO-0" value="map data to account debit credit" style="rounded=1;whiteSpace=wrap;html=1;" vertex="1" parent="UP3dKJEMZp_bju_HwEQN-1">
          <mxGeometry x="280" y="180" width="180" height="40" as="geometry" />
        </mxCell>
        <mxCell id="bATwNnxYI-AyKtaqYSiO-4" style="edgeStyle=orthogonalEdgeStyle;shape=connector;curved=0;rounded=1;orthogonalLoop=1;jettySize=auto;html=1;entryX=0.5;entryY=0;entryDx=0;entryDy=0;strokeColor=light-dark(#000000,#CC6600);align=center;verticalAlign=middle;fontFamily=Helvetica;fontSize=11;fontColor=default;labelBackgroundColor=default;endArrow=classic;" edge="1" parent="UP3dKJEMZp_bju_HwEQN-1" source="bATwNnxYI-AyKtaqYSiO-2" target="bATwNnxYI-AyKtaqYSiO-0">
          <mxGeometry relative="1" as="geometry" />
        </mxCell>
        <mxCell id="bATwNnxYI-AyKtaqYSiO-2" value="add entry to journal entry" style="rounded=1;whiteSpace=wrap;html=1;" vertex="1" parent="UP3dKJEMZp_bju_HwEQN-1">
          <mxGeometry x="280" y="120" width="180" height="40" as="geometry" />
        </mxCell>
      </root>
    </mxGraphModel>
  </diagram>
  <diagram name="Account Bill/Expense" id="9juHSPHbtqxm2ipiTadu">
    <mxGraphModel dx="2350" dy="1028" grid="1" gridSize="10" guides="1" tooltips="1" connect="1" arrows="1" fold="1" page="1" pageScale="1" pageWidth="850" pageHeight="1100" math="0" shadow="0">
      <root>
        <mxCell id="3TlZlLNGSO1CZmxqVjTt-0" />
        <mxCell id="3TlZlLNGSO1CZmxqVjTt-1" parent="3TlZlLNGSO1CZmxqVjTt-0" />
        <mxCell id="3TlZlLNGSO1CZmxqVjTt-2" value="map account bill request" style="rounded=1;whiteSpace=wrap;html=1;" vertex="1" parent="3TlZlLNGSO1CZmxqVjTt-1">
          <mxGeometry x="40" y="120" width="170" height="30" as="geometry" />
        </mxCell>
        <mxCell id="3TlZlLNGSO1CZmxqVjTt-5" value="Account Bill" style="text;html=1;align=center;verticalAlign=middle;whiteSpace=wrap;rounded=0;" vertex="1" parent="3TlZlLNGSO1CZmxqVjTt-1">
          <mxGeometry x="67.5" y="40" width="115" height="30" as="geometry" />
        </mxCell>
        <mxCell id="3TlZlLNGSO1CZmxqVjTt-6" value="Journal Entry" style="text;html=1;align=center;verticalAlign=middle;whiteSpace=wrap;rounded=0;" vertex="1" parent="3TlZlLNGSO1CZmxqVjTt-1">
          <mxGeometry x="300" y="40" width="120" height="30" as="geometry" />
        </mxCell>
        <mxCell id="3TlZlLNGSO1CZmxqVjTt-7" style="edgeStyle=orthogonalEdgeStyle;rounded=0;orthogonalLoop=1;jettySize=auto;html=1;entryX=0.5;entryY=0;entryDx=0;entryDy=0;" edge="1" parent="3TlZlLNGSO1CZmxqVjTt-1" source="3TlZlLNGSO1CZmxqVjTt-8" target="3TlZlLNGSO1CZmxqVjTt-19">
          <mxGeometry relative="1" as="geometry" />
        </mxCell>
        <mxCell id="3TlZlLNGSO1CZmxqVjTt-8" value="get default accounts&lt;div&gt;(payable)&lt;/div&gt;" style="rounded=1;whiteSpace=wrap;html=1;" vertex="1" parent="3TlZlLNGSO1CZmxqVjTt-1">
          <mxGeometry x="290" y="120" width="180" height="40" as="geometry" />
        </mxCell>
        <mxCell id="3TlZlLNGSO1CZmxqVjTt-12" style="edgeStyle=orthogonalEdgeStyle;rounded=0;orthogonalLoop=1;jettySize=auto;html=1;entryX=0.5;entryY=0;entryDx=0;entryDy=0;" edge="1" parent="3TlZlLNGSO1CZmxqVjTt-1" source="3TlZlLNGSO1CZmxqVjTt-13" target="3TlZlLNGSO1CZmxqVjTt-15">
          <mxGeometry relative="1" as="geometry" />
        </mxCell>
        <mxCell id="3TlZlLNGSO1CZmxqVjTt-13" value="&lt;div&gt;&lt;span style=&quot;background-color: transparent; color: light-dark(rgb(0, 0, 0), rgb(255, 255, 255));&quot;&gt;debit = expense account&lt;/span&gt;&lt;/div&gt;&lt;div&gt;bill amount&lt;/div&gt;" style="rounded=1;whiteSpace=wrap;html=1;" vertex="1" parent="3TlZlLNGSO1CZmxqVjTt-1">
          <mxGeometry x="290" y="250" width="180" height="50" as="geometry" />
        </mxCell>
        <mxCell id="3TlZlLNGSO1CZmxqVjTt-14" style="edgeStyle=orthogonalEdgeStyle;rounded=0;orthogonalLoop=1;jettySize=auto;html=1;entryX=0.5;entryY=0;entryDx=0;entryDy=0;" edge="1" parent="3TlZlLNGSO1CZmxqVjTt-1" source="3TlZlLNGSO1CZmxqVjTt-15" target="3TlZlLNGSO1CZmxqVjTt-17">
          <mxGeometry relative="1" as="geometry" />
        </mxCell>
        <mxCell id="3TlZlLNGSO1CZmxqVjTt-15" value="&lt;div&gt;&lt;span style=&quot;background-color: transparent; color: light-dark(rgb(0, 0, 0), rgb(255, 255, 255));&quot;&gt;credit = payable account&lt;/span&gt;&lt;/div&gt;&lt;div&gt;bill amount - tax amount&amp;nbsp;&lt;/div&gt;" style="rounded=1;whiteSpace=wrap;html=1;" vertex="1" parent="3TlZlLNGSO1CZmxqVjTt-1">
          <mxGeometry x="290" y="320" width="180" height="50" as="geometry" />
        </mxCell>
        <mxCell id="3TlZlLNGSO1CZmxqVjTt-16" style="edgeStyle=orthogonalEdgeStyle;shape=connector;curved=0;rounded=1;orthogonalLoop=1;jettySize=auto;html=1;entryX=0;entryY=0.5;entryDx=0;entryDy=0;strokeColor=light-dark(#000000,#CC6600);align=center;verticalAlign=middle;fontFamily=Helvetica;fontSize=11;fontColor=default;labelBackgroundColor=default;endArrow=classic;" edge="1" parent="3TlZlLNGSO1CZmxqVjTt-1" source="3TlZlLNGSO1CZmxqVjTt-17" target="3TlZlLNGSO1CZmxqVjTt-22">
          <mxGeometry relative="1" as="geometry" />
        </mxCell>
        <mxCell id="3TlZlLNGSO1CZmxqVjTt-17" value="&lt;div&gt;&lt;span style=&quot;background-color: transparent; color: light-dark(rgb(0, 0, 0), rgb(255, 255, 255));&quot;&gt;credit = tax account&lt;/span&gt;&lt;/div&gt;&lt;div&gt;vat&lt;/div&gt;" style="rounded=1;whiteSpace=wrap;html=1;" vertex="1" parent="3TlZlLNGSO1CZmxqVjTt-1">
          <mxGeometry x="290" y="390" width="180" height="50" as="geometry" />
        </mxCell>
        <mxCell id="3TlZlLNGSO1CZmxqVjTt-18" style="edgeStyle=orthogonalEdgeStyle;rounded=0;orthogonalLoop=1;jettySize=auto;html=1;entryX=0.5;entryY=0;entryDx=0;entryDy=0;" edge="1" parent="3TlZlLNGSO1CZmxqVjTt-1" source="3TlZlLNGSO1CZmxqVjTt-19" target="3TlZlLNGSO1CZmxqVjTt-13">
          <mxGeometry relative="1" as="geometry" />
        </mxCell>
        <mxCell id="3TlZlLNGSO1CZmxqVjTt-19" value="record to journal entry" style="rounded=1;whiteSpace=wrap;html=1;" vertex="1" parent="3TlZlLNGSO1CZmxqVjTt-1">
          <mxGeometry x="290" y="190" width="180" height="40" as="geometry" />
        </mxCell>
        <mxCell id="3TlZlLNGSO1CZmxqVjTt-20" value="Chart of Account Balance" style="text;html=1;align=center;verticalAlign=middle;whiteSpace=wrap;rounded=0;" vertex="1" parent="3TlZlLNGSO1CZmxqVjTt-1">
          <mxGeometry x="580" y="40" width="190" height="30" as="geometry" />
        </mxCell>
        <mxCell id="3TlZlLNGSO1CZmxqVjTt-21" style="edgeStyle=orthogonalEdgeStyle;shape=connector;curved=0;rounded=1;orthogonalLoop=1;jettySize=auto;html=1;entryX=0.5;entryY=0;entryDx=0;entryDy=0;strokeColor=light-dark(#000000,#CC6600);align=center;verticalAlign=middle;fontFamily=Helvetica;fontSize=11;fontColor=default;labelBackgroundColor=default;endArrow=classic;" edge="1" parent="3TlZlLNGSO1CZmxqVjTt-1" source="3TlZlLNGSO1CZmxqVjTt-22" target="3TlZlLNGSO1CZmxqVjTt-24">
          <mxGeometry relative="1" as="geometry" />
        </mxCell>
        <mxCell id="3TlZlLNGSO1CZmxqVjTt-22" value="get accounting calendar by transaction date" style="rounded=1;whiteSpace=wrap;html=1;" vertex="1" parent="3TlZlLNGSO1CZmxqVjTt-1">
          <mxGeometry x="580" y="120" width="180" height="40" as="geometry" />
        </mxCell>
        <mxCell id="3TlZlLNGSO1CZmxqVjTt-23" style="edgeStyle=orthogonalEdgeStyle;shape=connector;curved=0;rounded=1;orthogonalLoop=1;jettySize=auto;html=1;strokeColor=light-dark(#000000,#CC6600);align=center;verticalAlign=middle;fontFamily=Helvetica;fontSize=11;fontColor=default;labelBackgroundColor=default;endArrow=classic;" edge="1" parent="3TlZlLNGSO1CZmxqVjTt-1" source="3TlZlLNGSO1CZmxqVjTt-24" target="3TlZlLNGSO1CZmxqVjTt-28">
          <mxGeometry relative="1" as="geometry" />
        </mxCell>
        <mxCell id="3TlZlLNGSO1CZmxqVjTt-24" value="get all accounting calendar with the same quarter" style="rounded=1;whiteSpace=wrap;html=1;" vertex="1" parent="3TlZlLNGSO1CZmxqVjTt-1">
          <mxGeometry x="580" y="190" width="180" height="40" as="geometry" />
        </mxCell>
        <mxCell id="3TlZlLNGSO1CZmxqVjTt-27" style="edgeStyle=orthogonalEdgeStyle;shape=connector;curved=0;rounded=1;orthogonalLoop=1;jettySize=auto;html=1;entryX=0.5;entryY=0;entryDx=0;entryDy=0;strokeColor=light-dark(#000000,#CC6600);align=center;verticalAlign=middle;fontFamily=Helvetica;fontSize=11;fontColor=default;labelBackgroundColor=default;endArrow=classic;" edge="1" parent="3TlZlLNGSO1CZmxqVjTt-1" source="3TlZlLNGSO1CZmxqVjTt-28" target="3TlZlLNGSO1CZmxqVjTt-31">
          <mxGeometry relative="1" as="geometry" />
        </mxCell>
        <mxCell id="3TlZlLNGSO1CZmxqVjTt-28" value="update coa balance for each quarter per entry in journal" style="rounded=1;whiteSpace=wrap;html=1;" vertex="1" parent="3TlZlLNGSO1CZmxqVjTt-1">
          <mxGeometry x="580" y="260" width="180" height="40" as="geometry" />
        </mxCell>
        <mxCell id="3TlZlLNGSO1CZmxqVjTt-29" style="edgeStyle=orthogonalEdgeStyle;shape=connector;curved=0;rounded=1;orthogonalLoop=1;jettySize=auto;html=1;strokeColor=light-dark(#000000,#CC6600);align=center;verticalAlign=middle;fontFamily=Helvetica;fontSize=11;fontColor=default;labelBackgroundColor=default;endArrow=classic;" edge="1" parent="3TlZlLNGSO1CZmxqVjTt-1" source="3TlZlLNGSO1CZmxqVjTt-30" target="3TlZlLNGSO1CZmxqVjTt-2">
          <mxGeometry relative="1" as="geometry" />
        </mxCell>
        <mxCell id="3TlZlLNGSO1CZmxqVjTt-30" value="start" style="rounded=1;whiteSpace=wrap;html=1;arcSize=50;" vertex="1" parent="3TlZlLNGSO1CZmxqVjTt-1">
          <mxGeometry x="-120" y="117.5" width="100" height="35" as="geometry" />
        </mxCell>
        <mxCell id="3TlZlLNGSO1CZmxqVjTt-31" value="end" style="rounded=1;whiteSpace=wrap;html=1;arcSize=50;" vertex="1" parent="3TlZlLNGSO1CZmxqVjTt-1">
          <mxGeometry x="620" y="330" width="100" height="35" as="geometry" />
        </mxCell>
        <mxCell id="3TlZlLNGSO1CZmxqVjTt-32" style="edgeStyle=orthogonalEdgeStyle;shape=connector;curved=0;rounded=1;orthogonalLoop=1;jettySize=auto;html=1;entryX=0.5;entryY=0;entryDx=0;entryDy=0;strokeColor=light-dark(#000000,#CC6600);align=center;verticalAlign=middle;fontFamily=Helvetica;fontSize=11;fontColor=default;labelBackgroundColor=default;endArrow=classic;" edge="1" parent="3TlZlLNGSO1CZmxqVjTt-1" target="3TlZlLNGSO1CZmxqVjTt-43">
          <mxGeometry relative="1" as="geometry">
            <mxPoint x="125.0344827586207" y="429.9999999999999" as="sourcePoint" />
          </mxGeometry>
        </mxCell>
        <mxCell id="3TlZlLNGSO1CZmxqVjTt-34" style="edgeStyle=orthogonalEdgeStyle;shape=connector;curved=0;rounded=1;orthogonalLoop=1;jettySize=auto;html=1;strokeColor=light-dark(#000000,#CC6600);align=center;verticalAlign=middle;fontFamily=Helvetica;fontSize=11;fontColor=default;labelBackgroundColor=default;endArrow=classic;" edge="1" parent="3TlZlLNGSO1CZmxqVjTt-1" source="3TlZlLNGSO1CZmxqVjTt-38" target="3TlZlLNGSO1CZmxqVjTt-44">
          <mxGeometry relative="1" as="geometry">
            <mxPoint x="10" y="230" as="targetPoint" />
          </mxGeometry>
        </mxCell>
        <mxCell id="3TlZlLNGSO1CZmxqVjTt-35" value="yes" style="edgeLabel;html=1;align=center;verticalAlign=middle;resizable=0;points=[];fontFamily=Helvetica;fontSize=11;fontColor=default;labelBackgroundColor=default;" vertex="1" connectable="0" parent="3TlZlLNGSO1CZmxqVjTt-34">
          <mxGeometry x="-0.2308" y="2" relative="1" as="geometry">
            <mxPoint as="offset" />
          </mxGeometry>
        </mxCell>
        <mxCell id="3TlZlLNGSO1CZmxqVjTt-36" style="edgeStyle=orthogonalEdgeStyle;shape=connector;curved=0;rounded=1;orthogonalLoop=1;jettySize=auto;html=1;strokeColor=light-dark(#000000,#CC6600);align=center;verticalAlign=middle;fontFamily=Helvetica;fontSize=11;fontColor=default;labelBackgroundColor=default;endArrow=classic;" edge="1" parent="3TlZlLNGSO1CZmxqVjTt-1" source="3TlZlLNGSO1CZmxqVjTt-38" target="3TlZlLNGSO1CZmxqVjTt-41">
          <mxGeometry relative="1" as="geometry" />
        </mxCell>
        <mxCell id="3TlZlLNGSO1CZmxqVjTt-37" value="NO" style="edgeLabel;html=1;align=center;verticalAlign=middle;resizable=0;points=[];fontFamily=Helvetica;fontSize=11;fontColor=default;labelBackgroundColor=default;" vertex="1" connectable="0" parent="3TlZlLNGSO1CZmxqVjTt-36">
          <mxGeometry x="-0.32" y="1" relative="1" as="geometry">
            <mxPoint as="offset" />
          </mxGeometry>
        </mxCell>
        <mxCell id="3TlZlLNGSO1CZmxqVjTt-38" value="validation failed" style="rhombus;whiteSpace=wrap;html=1;fontFamily=Helvetica;fontSize=11;fontColor=default;labelBackgroundColor=default;" vertex="1" parent="3TlZlLNGSO1CZmxqVjTt-1">
          <mxGeometry x="77.5" y="190" width="95" height="80" as="geometry" />
        </mxCell>
        <mxCell id="3TlZlLNGSO1CZmxqVjTt-39" style="edgeStyle=orthogonalEdgeStyle;shape=connector;curved=0;rounded=1;orthogonalLoop=1;jettySize=auto;html=1;entryX=0.494;entryY=0.07;entryDx=0;entryDy=0;entryPerimeter=0;strokeColor=light-dark(#000000,#CC6600);align=center;verticalAlign=middle;fontFamily=Helvetica;fontSize=11;fontColor=default;labelBackgroundColor=default;endArrow=classic;" edge="1" parent="3TlZlLNGSO1CZmxqVjTt-1" source="3TlZlLNGSO1CZmxqVjTt-2" target="3TlZlLNGSO1CZmxqVjTt-38">
          <mxGeometry relative="1" as="geometry" />
        </mxCell>
        <mxCell id="vF5dvGOrotsmhsGy-JVD-1" style="edgeStyle=orthogonalEdgeStyle;shape=connector;curved=0;rounded=1;orthogonalLoop=1;jettySize=auto;html=1;entryX=0;entryY=0.5;entryDx=0;entryDy=0;strokeColor=light-dark(#000000,#CC6600);align=center;verticalAlign=middle;fontFamily=Helvetica;fontSize=11;fontColor=default;labelBackgroundColor=default;endArrow=classic;" edge="1" parent="3TlZlLNGSO1CZmxqVjTt-1" source="3TlZlLNGSO1CZmxqVjTt-41" target="3TlZlLNGSO1CZmxqVjTt-8">
          <mxGeometry relative="1" as="geometry" />
        </mxCell>
        <mxCell id="3TlZlLNGSO1CZmxqVjTt-41" value="save account bill" style="rounded=1;whiteSpace=wrap;html=1;" vertex="1" parent="3TlZlLNGSO1CZmxqVjTt-1">
          <mxGeometry x="40" y="320" width="170" height="30" as="geometry" />
        </mxCell>
        <mxCell id="3TlZlLNGSO1CZmxqVjTt-44" value="end" style="rounded=1;whiteSpace=wrap;html=1;arcSize=50;" vertex="1" parent="3TlZlLNGSO1CZmxqVjTt-1">
          <mxGeometry x="-120" y="212.5" width="100" height="35" as="geometry" />
        </mxCell>
      </root>
    </mxGraphModel>
  </diagram>
  <diagram name="Payment Account Bill/Expense" id="zGpoKrfxHP9Fck2-cUQX">
    <mxGraphModel dx="2895" dy="1402" grid="1" gridSize="10" guides="1" tooltips="1" connect="1" arrows="1" fold="1" page="1" pageScale="1" pageWidth="850" pageHeight="1100" math="0" shadow="0">
      <root>
        <mxCell id="QxaTSPT5l_hNxrCUWMnD-0" />
        <mxCell id="QxaTSPT5l_hNxrCUWMnD-1" parent="QxaTSPT5l_hNxrCUWMnD-0" />
        <mxCell id="QxaTSPT5l_hNxrCUWMnD-2" value="map payment account bill request" style="rounded=1;whiteSpace=wrap;html=1;" vertex="1" parent="QxaTSPT5l_hNxrCUWMnD-1">
          <mxGeometry x="40" y="120" width="170" height="40" as="geometry" />
        </mxCell>
        <mxCell id="QxaTSPT5l_hNxrCUWMnD-3" value="Account Bill" style="text;html=1;align=center;verticalAlign=middle;whiteSpace=wrap;rounded=0;" vertex="1" parent="QxaTSPT5l_hNxrCUWMnD-1">
          <mxGeometry x="67.5" y="40" width="115" height="30" as="geometry" />
        </mxCell>
        <mxCell id="QxaTSPT5l_hNxrCUWMnD-4" value="Journal Entry" style="text;html=1;align=center;verticalAlign=middle;whiteSpace=wrap;rounded=0;" vertex="1" parent="QxaTSPT5l_hNxrCUWMnD-1">
          <mxGeometry x="300" y="40" width="120" height="30" as="geometry" />
        </mxCell>
        <mxCell id="QxaTSPT5l_hNxrCUWMnD-5" style="edgeStyle=orthogonalEdgeStyle;rounded=0;orthogonalLoop=1;jettySize=auto;html=1;entryX=0.5;entryY=0;entryDx=0;entryDy=0;" edge="1" parent="QxaTSPT5l_hNxrCUWMnD-1" source="QxaTSPT5l_hNxrCUWMnD-6" target="QxaTSPT5l_hNxrCUWMnD-14">
          <mxGeometry relative="1" as="geometry" />
        </mxCell>
        <mxCell id="QxaTSPT5l_hNxrCUWMnD-6" value="get default accounts&lt;div&gt;(payable)&lt;/div&gt;" style="rounded=1;whiteSpace=wrap;html=1;" vertex="1" parent="QxaTSPT5l_hNxrCUWMnD-1">
          <mxGeometry x="290" y="120" width="180" height="40" as="geometry" />
        </mxCell>
        <mxCell id="QxaTSPT5l_hNxrCUWMnD-7" style="edgeStyle=orthogonalEdgeStyle;rounded=0;orthogonalLoop=1;jettySize=auto;html=1;entryX=0.5;entryY=0;entryDx=0;entryDy=0;" edge="1" parent="QxaTSPT5l_hNxrCUWMnD-1" source="QxaTSPT5l_hNxrCUWMnD-8" target="QxaTSPT5l_hNxrCUWMnD-10">
          <mxGeometry relative="1" as="geometry" />
        </mxCell>
        <mxCell id="QxaTSPT5l_hNxrCUWMnD-8" value="&lt;div&gt;&lt;span style=&quot;background-color: transparent; color: light-dark(rgb(0, 0, 0), rgb(255, 255, 255));&quot;&gt;debit = cash account&lt;/span&gt;&lt;/div&gt;&lt;div&gt;pay amount&lt;/div&gt;" style="rounded=1;whiteSpace=wrap;html=1;" vertex="1" parent="QxaTSPT5l_hNxrCUWMnD-1">
          <mxGeometry x="290" y="250" width="180" height="50" as="geometry" />
        </mxCell>
        <mxCell id="QxaTSPT5l_hNxrCUWMnD-10" value="&lt;div&gt;&lt;span style=&quot;background-color: transparent; color: light-dark(rgb(0, 0, 0), rgb(255, 255, 255));&quot;&gt;credit = payable account&lt;/span&gt;&lt;/div&gt;&lt;div&gt;pay amount&amp;nbsp;&lt;/div&gt;" style="rounded=1;whiteSpace=wrap;html=1;" vertex="1" parent="QxaTSPT5l_hNxrCUWMnD-1">
          <mxGeometry x="290" y="320" width="180" height="50" as="geometry" />
        </mxCell>
        <mxCell id="QxaTSPT5l_hNxrCUWMnD-11" style="edgeStyle=orthogonalEdgeStyle;shape=connector;curved=0;rounded=1;orthogonalLoop=1;jettySize=auto;html=1;entryX=0;entryY=0.5;entryDx=0;entryDy=0;strokeColor=light-dark(#000000,#CC6600);align=center;verticalAlign=middle;fontFamily=Helvetica;fontSize=11;fontColor=default;labelBackgroundColor=default;endArrow=classic;exitX=0.5;exitY=1;exitDx=0;exitDy=0;" edge="1" parent="QxaTSPT5l_hNxrCUWMnD-1" source="QxaTSPT5l_hNxrCUWMnD-10" target="QxaTSPT5l_hNxrCUWMnD-17">
          <mxGeometry relative="1" as="geometry">
            <mxPoint x="470" y="414.9999999999999" as="sourcePoint" />
          </mxGeometry>
        </mxCell>
        <mxCell id="QxaTSPT5l_hNxrCUWMnD-13" style="edgeStyle=orthogonalEdgeStyle;rounded=0;orthogonalLoop=1;jettySize=auto;html=1;entryX=0.5;entryY=0;entryDx=0;entryDy=0;" edge="1" parent="QxaTSPT5l_hNxrCUWMnD-1" source="QxaTSPT5l_hNxrCUWMnD-14" target="QxaTSPT5l_hNxrCUWMnD-8">
          <mxGeometry relative="1" as="geometry" />
        </mxCell>
        <mxCell id="QxaTSPT5l_hNxrCUWMnD-14" value="record to journal entry" style="rounded=1;whiteSpace=wrap;html=1;" vertex="1" parent="QxaTSPT5l_hNxrCUWMnD-1">
          <mxGeometry x="290" y="190" width="180" height="40" as="geometry" />
        </mxCell>
        <mxCell id="QxaTSPT5l_hNxrCUWMnD-15" value="Chart of Account Balance" style="text;html=1;align=center;verticalAlign=middle;whiteSpace=wrap;rounded=0;" vertex="1" parent="QxaTSPT5l_hNxrCUWMnD-1">
          <mxGeometry x="580" y="40" width="190" height="30" as="geometry" />
        </mxCell>
        <mxCell id="QxaTSPT5l_hNxrCUWMnD-16" style="edgeStyle=orthogonalEdgeStyle;shape=connector;curved=0;rounded=1;orthogonalLoop=1;jettySize=auto;html=1;entryX=0.5;entryY=0;entryDx=0;entryDy=0;strokeColor=light-dark(#000000,#CC6600);align=center;verticalAlign=middle;fontFamily=Helvetica;fontSize=11;fontColor=default;labelBackgroundColor=default;endArrow=classic;" edge="1" parent="QxaTSPT5l_hNxrCUWMnD-1" source="QxaTSPT5l_hNxrCUWMnD-17" target="QxaTSPT5l_hNxrCUWMnD-19">
          <mxGeometry relative="1" as="geometry" />
        </mxCell>
        <mxCell id="QxaTSPT5l_hNxrCUWMnD-17" value="get accounting calendar by transaction date" style="rounded=1;whiteSpace=wrap;html=1;" vertex="1" parent="QxaTSPT5l_hNxrCUWMnD-1">
          <mxGeometry x="580" y="120" width="180" height="40" as="geometry" />
        </mxCell>
        <mxCell id="QxaTSPT5l_hNxrCUWMnD-18" style="edgeStyle=orthogonalEdgeStyle;shape=connector;curved=0;rounded=1;orthogonalLoop=1;jettySize=auto;html=1;strokeColor=light-dark(#000000,#CC6600);align=center;verticalAlign=middle;fontFamily=Helvetica;fontSize=11;fontColor=default;labelBackgroundColor=default;endArrow=classic;" edge="1" parent="QxaTSPT5l_hNxrCUWMnD-1" source="QxaTSPT5l_hNxrCUWMnD-19" target="QxaTSPT5l_hNxrCUWMnD-21">
          <mxGeometry relative="1" as="geometry" />
        </mxCell>
        <mxCell id="QxaTSPT5l_hNxrCUWMnD-19" value="get all accounting calendar with the same quarter" style="rounded=1;whiteSpace=wrap;html=1;" vertex="1" parent="QxaTSPT5l_hNxrCUWMnD-1">
          <mxGeometry x="580" y="190" width="180" height="40" as="geometry" />
        </mxCell>
        <mxCell id="QxaTSPT5l_hNxrCUWMnD-20" style="edgeStyle=orthogonalEdgeStyle;shape=connector;curved=0;rounded=1;orthogonalLoop=1;jettySize=auto;html=1;entryX=0.5;entryY=0;entryDx=0;entryDy=0;strokeColor=light-dark(#000000,#CC6600);align=center;verticalAlign=middle;fontFamily=Helvetica;fontSize=11;fontColor=default;labelBackgroundColor=default;endArrow=classic;" edge="1" parent="QxaTSPT5l_hNxrCUWMnD-1" source="QxaTSPT5l_hNxrCUWMnD-21" target="QxaTSPT5l_hNxrCUWMnD-24">
          <mxGeometry relative="1" as="geometry" />
        </mxCell>
        <mxCell id="QxaTSPT5l_hNxrCUWMnD-21" value="update coa balance for each quarter per entry in journal" style="rounded=1;whiteSpace=wrap;html=1;" vertex="1" parent="QxaTSPT5l_hNxrCUWMnD-1">
          <mxGeometry x="580" y="260" width="180" height="40" as="geometry" />
        </mxCell>
        <mxCell id="QxaTSPT5l_hNxrCUWMnD-22" style="edgeStyle=orthogonalEdgeStyle;shape=connector;curved=0;rounded=1;orthogonalLoop=1;jettySize=auto;html=1;strokeColor=light-dark(#000000,#CC6600);align=center;verticalAlign=middle;fontFamily=Helvetica;fontSize=11;fontColor=default;labelBackgroundColor=default;endArrow=classic;" edge="1" parent="QxaTSPT5l_hNxrCUWMnD-1" source="QxaTSPT5l_hNxrCUWMnD-23" target="QxaTSPT5l_hNxrCUWMnD-2">
          <mxGeometry relative="1" as="geometry" />
        </mxCell>
        <mxCell id="QxaTSPT5l_hNxrCUWMnD-23" value="start" style="rounded=1;whiteSpace=wrap;html=1;arcSize=50;" vertex="1" parent="QxaTSPT5l_hNxrCUWMnD-1">
          <mxGeometry x="-120" y="122.5" width="100" height="35" as="geometry" />
        </mxCell>
        <mxCell id="QxaTSPT5l_hNxrCUWMnD-24" value="end" style="rounded=1;whiteSpace=wrap;html=1;arcSize=50;" vertex="1" parent="QxaTSPT5l_hNxrCUWMnD-1">
          <mxGeometry x="620" y="330" width="100" height="35" as="geometry" />
        </mxCell>
        <mxCell id="QxaTSPT5l_hNxrCUWMnD-25" style="edgeStyle=orthogonalEdgeStyle;shape=connector;curved=0;rounded=1;orthogonalLoop=1;jettySize=auto;html=1;entryX=0.5;entryY=0;entryDx=0;entryDy=0;strokeColor=light-dark(#000000,#CC6600);align=center;verticalAlign=middle;fontFamily=Helvetica;fontSize=11;fontColor=default;labelBackgroundColor=default;endArrow=classic;" edge="1" parent="QxaTSPT5l_hNxrCUWMnD-1">
          <mxGeometry relative="1" as="geometry">
            <mxPoint x="125.0344827586207" y="429.9999999999999" as="sourcePoint" />
          </mxGeometry>
        </mxCell>
        <mxCell id="QxaTSPT5l_hNxrCUWMnD-26" style="edgeStyle=orthogonalEdgeStyle;shape=connector;curved=0;rounded=1;orthogonalLoop=1;jettySize=auto;html=1;strokeColor=light-dark(#000000,#CC6600);align=center;verticalAlign=middle;fontFamily=Helvetica;fontSize=11;fontColor=default;labelBackgroundColor=default;endArrow=classic;" edge="1" parent="QxaTSPT5l_hNxrCUWMnD-1" source="QxaTSPT5l_hNxrCUWMnD-30" target="QxaTSPT5l_hNxrCUWMnD-34">
          <mxGeometry relative="1" as="geometry">
            <mxPoint x="10" y="230" as="targetPoint" />
          </mxGeometry>
        </mxCell>
        <mxCell id="QxaTSPT5l_hNxrCUWMnD-27" value="yes" style="edgeLabel;html=1;align=center;verticalAlign=middle;resizable=0;points=[];fontFamily=Helvetica;fontSize=11;fontColor=default;labelBackgroundColor=default;" vertex="1" connectable="0" parent="QxaTSPT5l_hNxrCUWMnD-26">
          <mxGeometry x="-0.2308" y="2" relative="1" as="geometry">
            <mxPoint as="offset" />
          </mxGeometry>
        </mxCell>
        <mxCell id="QxaTSPT5l_hNxrCUWMnD-28" style="edgeStyle=orthogonalEdgeStyle;shape=connector;curved=0;rounded=1;orthogonalLoop=1;jettySize=auto;html=1;strokeColor=light-dark(#000000,#CC6600);align=center;verticalAlign=middle;fontFamily=Helvetica;fontSize=11;fontColor=default;labelBackgroundColor=default;endArrow=classic;" edge="1" parent="QxaTSPT5l_hNxrCUWMnD-1" source="QxaTSPT5l_hNxrCUWMnD-30" target="QxaTSPT5l_hNxrCUWMnD-33">
          <mxGeometry relative="1" as="geometry" />
        </mxCell>
        <mxCell id="QxaTSPT5l_hNxrCUWMnD-29" value="NO" style="edgeLabel;html=1;align=center;verticalAlign=middle;resizable=0;points=[];fontFamily=Helvetica;fontSize=11;fontColor=default;labelBackgroundColor=default;" vertex="1" connectable="0" parent="QxaTSPT5l_hNxrCUWMnD-28">
          <mxGeometry x="-0.32" y="1" relative="1" as="geometry">
            <mxPoint as="offset" />
          </mxGeometry>
        </mxCell>
        <mxCell id="QxaTSPT5l_hNxrCUWMnD-30" value="validation failed" style="rhombus;whiteSpace=wrap;html=1;fontFamily=Helvetica;fontSize=11;fontColor=default;labelBackgroundColor=default;" vertex="1" parent="QxaTSPT5l_hNxrCUWMnD-1">
          <mxGeometry x="77.5" y="190" width="95" height="80" as="geometry" />
        </mxCell>
        <mxCell id="QxaTSPT5l_hNxrCUWMnD-31" style="edgeStyle=orthogonalEdgeStyle;shape=connector;curved=0;rounded=1;orthogonalLoop=1;jettySize=auto;html=1;entryX=0.494;entryY=0.07;entryDx=0;entryDy=0;entryPerimeter=0;strokeColor=light-dark(#000000,#CC6600);align=center;verticalAlign=middle;fontFamily=Helvetica;fontSize=11;fontColor=default;labelBackgroundColor=default;endArrow=classic;" edge="1" parent="QxaTSPT5l_hNxrCUWMnD-1" source="QxaTSPT5l_hNxrCUWMnD-2" target="QxaTSPT5l_hNxrCUWMnD-30">
          <mxGeometry relative="1" as="geometry" />
        </mxCell>
        <mxCell id="QxaTSPT5l_hNxrCUWMnD-32" style="edgeStyle=orthogonalEdgeStyle;shape=connector;curved=0;rounded=1;orthogonalLoop=1;jettySize=auto;html=1;entryX=0;entryY=0.5;entryDx=0;entryDy=0;strokeColor=light-dark(#000000,#CC6600);align=center;verticalAlign=middle;fontFamily=Helvetica;fontSize=11;fontColor=default;labelBackgroundColor=default;endArrow=classic;" edge="1" parent="QxaTSPT5l_hNxrCUWMnD-1" source="QxaTSPT5l_hNxrCUWMnD-33" target="QxaTSPT5l_hNxrCUWMnD-6">
          <mxGeometry relative="1" as="geometry" />
        </mxCell>
        <mxCell id="QxaTSPT5l_hNxrCUWMnD-33" value="save account bill payment" style="rounded=1;whiteSpace=wrap;html=1;" vertex="1" parent="QxaTSPT5l_hNxrCUWMnD-1">
          <mxGeometry x="40" y="320" width="170" height="30" as="geometry" />
        </mxCell>
        <mxCell id="QxaTSPT5l_hNxrCUWMnD-34" value="end" style="rounded=1;whiteSpace=wrap;html=1;arcSize=50;" vertex="1" parent="QxaTSPT5l_hNxrCUWMnD-1">
          <mxGeometry x="-120" y="212.5" width="100" height="35" as="geometry" />
        </mxCell>
      </root>
    </mxGraphModel>
  </diagram>
</mxfile>
